<svg width="507" height="434" xmlns="http://www.w3.org/2000/svg" xmlns:xlink="http://www.w3.org/1999/xlink" xml:space="preserve" overflow="hidden"><g><path d="M118.773 270.856C118.56 270.503 118.106 270.381 117.746 270.582 112.606 273.471 77.6494 291.57 40.6217 271.881 19.7991 260.811 16.7536 244.185 20.1755 231.737 22.3222 223.928 27.207 217.843 30.775 215.362 31.3521 214.961 31.1122 214.057 30.4141 213.98 24.7504 213.348 12.6892 210.68 11.5909 199.393 10.7171 190.406 17.8032 186.46 20.8404 185.003 21.3736 184.747 21.5481 183.528 21.0589 183.197 16.4306 180.057 0.562806 167.119 10.5223 142.757 15.9509 129.476 26.9767 121.276 37.3684 117.656 46.251 114.562 54.8759 114.894 58.571 115.243 59.2359 115.306 59.6562 114.546 59.2489 114.018 57.8241 112.173 55.4684 108.724 54.0875 104.549 52.0655 98.4376 52.1806 90.7779 56.7472 83.8414 63.8773 73.008 74.2001 58.4795 95.3124 58.8595 101.405 58.9687 108.726 61.2651 116.859 64.1539 117.305 64.3118 117.785 64.034 117.869 63.5685 118.779 58.4071 124.929 32.1345 157.637 16.6609 175.024 8.43496 189.09 6.80829 199.705 8.89565 208.905 10.7052 215.489 15.4273 219.81 19.0155 220.1 19.2553 220.519 19.2482 220.801 19 223.32 16.7832 235.388 6.99826 250.713 8.42071 265.556 9.79923 277.55 17.6049 282.647 28.3077 282.875 28.785 283.501 28.9014 283.877 28.5285 286.896 25.5388 298.25 15.1566 308.941 16.6847 320.832 18.3838 327.755 27.9028 329.193 34.7954 329.294 35.2775 329.814 35.5422 330.26 35.3345 332.693 34.2029 339.676 31.4186 346.271 33.2138 353.147 35.0851 358.809 38.215 362.718 44.5685 362.927 44.9081 363.361 45.0304 363.716 44.8487 368.66 42.3208 401.828 26.8852 435.834 48.8988 435.834 48.8988 462.345 66.9822 461.678 98.4435 461.669 98.8246 461.939 99.1571 462.315 99.22 466.66 99.9384 491.306 105.395 498.443 137.512 505.488 169.216 491.804 180.613 486.623 182.454 486.087 182.643 485.936 183.324 486.342 183.722 488.344 185.681 492.347 190.378 492.08 196.406 491.808 202.526 488.961 205.779 487.63 206.976 487.298 207.274 487.293 207.789 487.618 208.097 488.322 208.765 489.466 210.021 490.466 211.889 493.654 217.853 496.339 229.576 485.349 244.993 472.587 262.894 450.797 254.883 445.429 252.541 444.895 252.308 444.31 252.732 444.364 253.311 444.671 256.608 444.945 265.052 440.11 267.612 435.084 270.273 429.511 268.607 427.761 267.963 427.433 267.843 427.069 267.96 426.87 268.246 425.502 270.218 420.051 277.21 412.766 275.246 405.725 273.348 403.595 266.363 403.051 263.872 402.953 263.423 402.488 263.161 402.055 263.312 398.447 264.569 383.635 267.928 367.823 245.935 367.613 245.643 367.231 245.534 366.901 245.677 363.981 246.934 350.216 251.828 341.302 236.878 341.067 236.484 340.543 236.38 340.178 236.66 337.365 238.826 326.081 246.663 310.748 246.087 300.974 245.719 289.59 241.761 277.848 231.458 277.549 231.196 277.1 231.203 276.814 231.478 273.926 234.248 258.93 247.409 243.077 238.455 242.819 238.309 242.5 238.32 242.258 238.491 240.561 239.691 233.374 244.093 223.213 240.753 222.704 240.585 222.186 240.985 222.216 241.522 222.431 245.352 222.049 257.482 208.876 259.358 208.586 259.4 208.347 259.605 208.259 259.884 207.311 262.899 201.313 279.731 184.658 283.126 175.885 284.914 166.796 282.689 154.39 273.159 154.107 272.941 153.711 272.946 153.436 273.174 151.546 274.738 144.104 280.398 135.495 280.378 129.874 280.358 123.273 278.29 118.773 270.856Z" fill="#FFFFFF" transform="scale(1 1.00142)"/><path d="M501.848 147.788C500.717 125.546 486.329 102.26 463.223 98.1609 463.245 63.7561 434.446 36.802 400.567 36.1561 388.285 35.604 375.651 38.0915 364.581 43.4571 364.297 43.5937 363.955 43.8359 363.904 43.7516 357.066 32.5216 341.954 28.1272 330.088 33.7446 328.544 26.231 322.669 19.9725 315.724 16.997 304.417 12.0528 290.865 18.233 283.704 27.4718 272.977 3.99307 237.572 0.786028 219.852 17.9184 219.768 17.9979 219.638 18.0537 219.647 17.9991 219.701 17.7011 219.609 17.3769 219.298 17.0943 218.448 16.3202 217.567 15.5864 216.654 14.887 215.733 14.1818 214.943 13.3589 213.95 12.7474 180.745-8.23905 121.792 26.0992 116.652 63.0936 111.259 59.7453 104.91 58.1744 98.6489 57.4715 91.6803 56.6688 84.5348 57.7303 78.262 60.9302 65.232 67.4429 52.1925 81.5664 51.3246 96.6506 51.6107 103.172 54.4129 109.574 58.3644 114.717 58.3774 114.735 58.3632 114.758 58.3406 114.752 45.2156 111.052 27.5062 118.406 18.347 127.985 2.9767 142.71 0.328897 172.062 19.9024 184.422 19.919 184.433 19.9167 184.455 19.8977 184.461 17.6108 185.233 15.603 186.756 14.0678 188.618 3.94558 200.037 15.7324 214.679 28.7731 215.23 28.7945 215.232 28.8028 215.255 28.7874 215.268 22.6891 220.651 18.5322 228.193 17.6654 236.327 15.134 257.925 34.7313 274.109 53.8548 279.222 75.0099 285.639 98.8329 283.067 117.814 271.659 124.469 283.135 139.5 284.448 150.105 277.815 150.92 277.336 154.121 274.676 154.173 274.724 160.803 280.698 169.575 284.163 178.428 285.018 197.605 318.047 219.745 301.184 228.447 320.989 234.399 335.482 228.197 349.515 236.879 358.947 245.341 368.139 233.63 412.928 227.704 421.381 226.161 421.742 209.425 427.019 213.366 427.887 233.961 421.126 255.577 418.162 277.236 418.341 297.096 418.649 324.016 416.384 341.524 426.482 342.126 426.831 342.709 427.21 343.273 427.617 344.581 428.562 346.089 426.508 344.974 425.415 342.68 423.167 339.888 421.759 336.928 420.582 329.085 417.557 320.652 416.502 312.32 415.782 310.384 411.929 305.062 400.506 303.851 389.083 302.363 375.051 317.494 333.183 317.494 333.183 317.494 333.183 349.467 320.739 354.701 300.057 359.781 279.979 387.46 282.684 396.842 266.044 398.705 266.003 400.556 265.654 402.274 264.907 405.777 278.78 419.771 280.94 428.118 269.668 439.926 273.716 448.101 266.143 445.692 254.041 466.846 264.861 491.463 251.447 494.383 228.018 495.054 221.333 494.552 212.597 488.988 208.041 494.631 201.025 495.572 189.421 487.743 183.606 501.557 178.4 502.418 160.44 501.848 147.788ZM201.905 297.987C196.436 296.063 189.332 288.567 185.778 284.517 192.43 283.057 198.469 279.086 202.755 273.799 204.285 279.473 208.373 294.113 210.805 297.93 210.587 297.987 209.016 300.487 201.905 297.987ZM222.742 299.136C219.317 298.433 209.49 274.636 206.554 268.078 207.775 265.628 209.049 262.987 209.332 260.248 218.474 258.973 224.505 251.212 223.353 242.037 225.156 242.485 226.896 242.819 228.746 243.025 229.212 249.652 232.483 300.643 222.742 299.136ZM235.146 305.224C236.714 301.945 245.604 294.176 236.054 242.832 238.438 242.373 240.783 241.413 242.678 239.849 247.38 242.243 252.873 242.776 257.941 242.306 258.299 250.323 261.433 324.375 254.864 325.246 247.919 326.166 249.159 322.946 249.159 322.946 249.159 322.946 244.957 312.604 235.146 305.224ZM277.825 233.197C283.202 237.585 289.224 241.384 295.702 243.956 293.707 245.928 287.595 251.635 278.552 257.039 275.766 258.704 273.708 260.283 272.184 261.715 272.165 254.873 271.716 245.464 271.784 237.291 273.846 235.906 275.798 234.242 277.455 232.35 277.431 232.654 277.536 232.96 277.825 233.197ZM292.814 342.499C283.141 360.902 280.413 347.56 280.413 347.56 280.413 347.56 274.376 339.802 272.641 288.346 275.34 281.728 279.385 273.093 283.513 269.001 290.426 262.147 301.156 247.291 301.981 246.144 302.014 246.098 302.037 246.023 302.146 246.052 307.048 247.31 312.183 247.719 317.225 247.26 316.597 250.522 302.274 324.503 292.814 342.499ZM350.237 260.72C346.887 269.145 345.127 281.972 339.792 290.483 335.323 297.613 330.374 303.383 325.309 305.463 308.109 312.527 330.946 245.218 331.379 243.948 334.657 242.566 337.74 240.664 340.431 238.315 343.645 244.596 350.313 248.968 357.385 249.102 355.679 250.929 352.607 254.762 350.237 260.72ZM363.384 266.011C365.919 260.948 371.392 256.684 373.195 254.341 377.615 258.942 383.071 262.605 389.103 264.729 384.61 268.186 373.267 276.154 360.793 279.004 360.786 279.006 360.779 279.009 360.779 279.002 360.766 278.775 360.396 271.978 363.384 266.011ZM497.083 166.355C495.658 173.246 491.103 179.7 484.065 181.61 482.408 181.041 480.643 180.858 478.902 181.265 477.797 181.524 478.072 183.175 479.165 183.202 480.085 183.224 480.992 183.327 481.872 183.522 482.199 184.137 483.112 183.991 483.697 184.085 495.859 189.454 490.496 207.438 479.826 211.275 478.265 211.817 476.603 211.933 474.979 212.162 474.217 212.27 474.198 213.384 474.775 213.725 479.159 216.081 484.514 212.915 487.569 209.685 491.361 213.804 491.7 220.977 491.298 226.304 489.568 245.179 472.016 258.704 453.336 254.021 446.636 252.593 440.703 248.799 436.25 243.64 435.389 242.696 433.682 243.961 434.45 245.029 436.579 247.987 439.419 250.416 442.573 252.344 443.035 256.86 443.553 262.371 439.854 265.739 434.973 269.661 423.747 267.714 422.25 260.972 421.891 259.464 419.593 260.104 419.931 261.611 420.609 264.629 422.662 266.853 425.223 268.348 417.5 277.196 407.656 275.144 404.36 263.805 407.3 261.942 409.797 258.94 409.603 255.446 409.533 254.187 407.943 254.059 407.5 255.161 406.413 258.308 404.047 260.961 400.879 262.111 386.188 266.422 370.008 250.547 365.877 237.416 365.389 235.958 363.087 236.571 363.558 238.055 364.197 240.069 364.989 242.028 365.92 243.916 356.774 247.946 347.582 245.01 342.451 236.375 344.374 234.308 346.101 232.023 346.984 229.31 347.534 228.053 345.865 226.991 345.102 228.211 344.741 228.788 344.379 229.251 343.919 229.74 336.215 240.836 322.427 245.096 309.39 244.131 298.301 243.308 288.197 237.643 279.282 231.308 279.007 231.116 278.713 231.083 278.443 231.154 279.711 229.48 281.053 227.785 281.525 225.697 281.755 224.909 280.627 224.144 280.065 224.847 279.666 225.345 279.186 225.76 278.848 226.301 271.936 238.035 256.974 243.172 244.294 238.233 245.217 236.965 246.6 235.314 246.563 233.691 246.453 232.796 245.56 232.405 244.848 232.98 244.279 233.44 244.085 234.132 243.734 234.752 239.179 242.636 228.355 241.381 220.957 238.871 217.547 237.709 214.188 235.817 212.357 232.599 211.658 231.369 209.772 232.47 210.46 233.708 212.729 237.795 216.992 240.122 221.425 241.497 221.187 243.909 221.025 246.371 220.366 248.711 217.637 257.644 206.116 260.194 198.244 256.804 197.077 256.362 196.622 258.189 197.735 258.652 200.723 259.896 203.948 260.554 207.173 260.441 203.269 270.224 195.352 279.187 184.727 281.48 175.749 283.067 166.106 279.843 158.543 275.003 154.84 272.508 151.215 268.893 150.409 264.324 150.214 263.222 148.308 263.462 148.435 264.591 148.783 267.663 150.175 270.288 152.087 272.557 152.151 272.633 151.004 273.399 150.275 273.696 148.648 274.774 146.947 275.764 145.139 276.512 134.68 281.393 120.526 277.101 117.712 265.1 117.442 264.062 115.703 264.24 115.793 265.36 115.919 266.924 116.313 268.43 116.914 269.852 99.3055 278.674 78.5506 281.584 59.2489 277.102 41.162 273.23 21.0411 260.693 20.4213 240.305 20.1102 230.679 25.0888 221.666 32.2402 215.47 33.5297 215.486 34.8191 215.357 35.9103 214.874 36.7154 214.517 36.3924 213.352 35.6812 213.123 34.0438 212.597 32.1144 212.837 30.4093 212.647 28.7114 212.489 27.0705 212.052 25.4652 211.514 16.7856 209.389 9.3979 199.79 15.0616 191.322 16.5648 188.815 18.9977 186.329 21.9114 185.607 25.7549 187.678 30.0448 188.856 34.4024 188.704 36.1134 188.644 36.1003 186.153 34.4024 186.055 18.0157 185.389 7.08731 168.187 9.65556 152.742 12.2654 131.111 33.4786 115.446 54.6883 116.092 56.2996 116.159 57.8621 115.712 59.4793 115.966 59.699 116.192 59.9222 116.415 60.1525 116.63 61.1772 117.585 62.6816 116.092 61.6937 115.089 57.5249 110.6 55.0243 104.536 54.4057 98.4684 53.9403 82.6837 72.3811 64.9174 87.1458 61.6593 96.9807 59.7417 107.363 61.8421 116.241 66.3054 115.893 70.0657 116.002 73.8676 116.64 77.6304 117.124 79.162 119.341 78.5886 119.012 76.9761 113.891 40.4828 157.681 9.90965 190.748 9.6045 197.9 9.79448 205.112 11.3855 211.445 14.7742 212.498 15.4308 213.616 15.9521 214.732 16.4852 215.784 17.1157 216.77 17.9005 217.716 18.6759 218.042 18.943 218.411 18.9977 218.739 18.9157 218.81 18.8979 218.861 18.9359 218.819 18.981 216.029 22.0088 213.883 25.5863 212.735 29.6292 212.291 31.1918 214.693 31.846 215.162 30.2989 224.998 3.09543 271.415 3.78885 281.707 30.4164 283.01 33.76 283.565 37.2069 283.946 40.7547 284.045 41.6761 285.471 42.0573 285.699 40.9922 286.527 37.1202 285.887 33.0239 284.44 29.2338 291.596 21.9257 302.956 15.8132 313.281 19.4773 320.278 21.9981 325.496 28.0168 328.152 34.8322 325.608 36.6275 323.849 39.4534 322.434 42.176 321.859 43.2909 323.403 44.1767 324.105 43.152 325.314 41.3888 326.688 39.6351 328.213 38.139 330.855 35.7643 334.571 34.9319 338.006 34.4297 347.707 33.2566 357.426 38.2043 362.106 46.7912 363.074 48.558 363.811 50.4328 364.858 52.1593 365.334 53.0177 366.737 52.6401 366.713 51.657 366.788 49.4248 365.919 47.3291 364.863 45.4103 393.216 33.0559 431.31 37.632 449.584 64.7749 461.388 81.6602 463.316 104.419 454.248 122.953 453.672 124.337 455.78 124.996 456.532 123.916 459.379 119.824 461.077 114.816 462.073 109.963 462.703 106.888 463.074 103.759 463.187 100.621 491.367 106.854 503.419 140.441 497.083 166.355Z" transform="scale(1 1.00142)"/></g></svg>